VIDEO INFO:

Format                           : Matroska
File size                        : 1.69 GiB
Duration                         : 1h 28mn
Overall bit rate                 : 2 735 Kbps
Encoded date                     : UTC 2011-07-31 03:30:52
Writing application              : mkvmerge v4.9.1 ('Ich will') gemaakt op Jul 11 2011 23:53:15
Writing library                  : libebml v1.2.1 + libmatroska v1.1.1

Video
ID                               : 2
Format                           : AVC
Format/Info                      : Advanced Video Codec
Format profile                   : Main@L4.0
Format settings, CABAC           : Yes
Format settings, ReFrames        : 3 frames
Codec ID                         : V_MPEG4/ISO/AVC
Duration                         : 1h 28mn
Bit rate                         : 2 350 Kbps
Width                            : 1 280 pixels
Height                           : 530 pixels
Display aspect ratio             : 2.40:1
Frame rate                       : 23.976 fps
Color space                      : YUV
Chroma subsampling               : 4:2:0
Bit depth                        : 8 bits
Scan type                        : Progressive
Bits/(Pixel*Frame)               : 0.144
Stream size                      : 1.42 GiB (84%)
Writing library                  : x264 core 65
Encoding settings                : cabac=1 / ref=2 / deblock=1:-2:-1 / analyse=0x1:0x131 / me=umh / subme=5 / psy_rd=0.0:0.0 / mixed_ref=1 / me_range=16 / chroma_me=1 / trellis=0 / 8x8dct=0 / cqm=0 / deadzone=21,11 / chroma_qp_offset=0 / threads=3 / nr=0 / decimate=1 / mbaff=0 / bframes=3 / b_pyramid=1 / b_adapt=1 / b_bias=0 / direct=3 / wpredb=1 / keyint=240 / keyint_min=24 / scenecut=40(pre) / rc=2pass / bitrate=2350 / ratetol=1.0 / qcomp=0.60 / qpmin=10 / qpmax=51 / qpstep=4 / cplxblur=20.0 / qblur=0.5 / ip_ratio=1.40 / pb_ratio=1.30 / aq=1:1.00
Language                         : English
Color primaries                  : BT.709-5, BT.1361, IEC 61966-2-4, SMPTE RP177
Transfer characteristics         : BT.709-5, BT.1361
Matrix coefficients              : BT.709-5, BT.1361, IEC 61966-2-4 709, SMPTE RP177

Audio
ID                               : 1
Format                           : AC-3
Format/Info                      : Audio Coding 3
Mode extension                   : CM (complete main)
Codec ID                         : A_AC3
Duration                         : 1h 28mn
Bit rate mode                    : Constant
Bit rate                         : 384 Kbps
Channel(s)                       : 6 channels
Channel positions                : Front: L C R, Side: L R, LFE
Sampling rate                    : 48.0 KHz
Bit depth                        : 16 bits
Compression mode                 : Lossy
Stream size                      : 244 MiB (14%)
Language                         : English

Text
ID                               : 3
Format                           : UTF-8
Codec ID                         : S_TEXT/UTF8
Codec ID/Info                    : UTF-8 Plain Text
Language                         : Dutch

-------------------------------------

Verenigde Staten
Sciencefiction / Actie
88 minuten

geregisseerd door Michael Crichton
met Yul Brynner, Richard Benjamin en James Brolin

Delos is een pretpark in de toekomst, waar naast een Romeins en Middeleeuws pretpark het themapark Westworld onderdeel van uitmaakt. In deze parken zijn alle figuren die er rondlopen robots, die worden bestuurd in een laboratorium door een groep specialisten. Bezoekers Peter Martin en John Blane besluiten naar Westworld te gaan en leven zich helemaal uit in het wilde westen. Het lijkt een heerlijk uitje, maar dan beginnen ze langzaam maar zeker te vermoeden dat er iets niet helemaal in orde is met de robots.

-Ondertiteling (nederlands) met de mogelijkheid deze aan/uit te zetten.